<?xml version="1.0" encoding="UTF-8"?>
<svg xmlns="http://www.w3.org/2000/svg" viewBox="0 0 1024 1024" width="1024" height="1024">
  <defs>
    <linearGradient id="bg" x1="512" y1="0" x2="512" y2="1024" gradientUnits="userSpaceOnUse">
      <stop offset="0" stop-color="#ffffff"/>
      <stop offset="0.7" stop-color="#85eeff"/>
      <stop offset="1" stop-color="#85eeff"/>
    </linearGradient>
    <linearGradient id="top-gloss" x1="512" y1="0" x2="512" y2="430" gradientUnits="userSpaceOnUse">
      <stop offset="0" stop-color="#ffffff" stop-opacity="0.74"/>
      <stop offset="0.55" stop-color="#ffffff" stop-opacity="0.18"/>
      <stop offset="1" stop-color="#ffffff" stop-opacity="0"/>
    </linearGradient>
    <linearGradient id="symbol-fill" x1="278" y1="185" x2="721" y2="846" gradientUnits="userSpaceOnUse">
      <stop offset="0" stop-color="#5ee0ff"/>
      <stop offset="0.22" stop-color="#2ec8ff"/>
      <stop offset="0.6" stop-color="#0b7bf5"/>
      <stop offset="1" stop-color="#0847bc"/>
    </linearGradient>
    <linearGradient id="symbol-sheen" x1="260" y1="178" x2="616" y2="566" gradientUnits="userSpaceOnUse">
      <stop offset="0" stop-color="#ffffff" stop-opacity="0.88"/>
      <stop offset="0.4" stop-color="#ffffff" stop-opacity="0.2"/>
      <stop offset="1" stop-color="#ffffff" stop-opacity="0"/>
    </linearGradient>
    <radialGradient id="specular" cx="0.3" cy="0.18" r="0.8">
      <stop offset="0" stop-color="#ffffff" stop-opacity="0.82"/>
      <stop offset="0.38" stop-color="#ffffff" stop-opacity="0.32"/>
      <stop offset="1" stop-color="#ffffff" stop-opacity="0"/>
    </radialGradient>
    <filter id="soft-blur" x="-20%" y="-20%" width="140%" height="140%">
      <feGaussianBlur stdDeviation="36"/>
    </filter>
    <filter id="symbol-shadow" x="-20%" y="-20%" width="140%" height="150%">
      <feOffset in="SourceAlpha" dy="18" result="offset"/>
      <feGaussianBlur in="offset" stdDeviation="18" result="blur"/>
      <feColorMatrix in="blur" type="matrix" values="0 0 0 0 0.031 0 0 0 0 0.227 0 0 0 0 0.600 0 0 0 0.28 0" result="shadow"/>
      <feBlend in="shadow" in2="SourceGraphic" mode="normal"/>
    </filter>
    <path id="mark" d="m 521.57654,239.54935 c 5.77087,9.36415 6.48395,19.85931 8.65936,29.86767 10.8476,49.90757 19.18359,100.30497 29.04541,150.40631 2.78394,14.1435 5.60492,28.2797 9.50885,42.5763 4.64941,-11.31858 9.24115,-22.66126 13.96442,-33.94892 4.75561,-11.36499 8.71808,-23.08163 14.46631,-34.00613 3.43029,-6.51913 8.8222,-10.409 16.58752,-9.73972 7.85284,0.67682 12.4176,5.53541 15.55072,12.34955 4.10272,8.92304 8.71362,17.6211 12.57538,26.64304 2.31598,5.41052 5.81909,7.03659 11.48352,7.00897 24.33075,-0.1185 48.66333,0.15781 72.99524,0.27835 5.30224,0.0263 10.6048,0.004 16.74499,0.004 -3.59954,-5.3649 -6.9624,-9.84043 -9.76489,-14.64301 -15.68115,-26.87323 -17.11963,-54.82104 -5.25336,-83.34915 3.78132,-9.09067 9.32666,-17.30008 17.41541,-23.41995 2.28375,-1.72785 4.51092,-2.30887 7.42035,-1.44989 29.53937,8.72119 52.18384,25.97574 66.66876,53.44656 4.20746,7.97965 6.98401,16.49042 9.28272,25.58926 7.66217,-1.2948 14.82995,-4.04641 22.38757,-4.95449 30.5611,-3.67194 60.10156,-0.87366 87.87201,13.54406 9.80218,5.08902 11.1084,7.66822 7.72369,18.31671 -12.35717,38.87687 -39.2464,63.18103 -77.13367,76.24558 -13.42455,4.62921 -27.30285,5.90259 -41.39117,4.52951 -2.68347,-0.26154 -3.44348,0.92789 -4.30737,2.95953 -7.53394,17.71949 -17.41254,34.2013 -28.5589,49.75708 -14.0777,19.64679 -29.99994,37.87458 -47.89111,54.21344 -23.57782,21.53211 -49.21643,40.22846 -77.18744,55.75873 -28.35138,15.74152 -57.95539,28.39862 -88.88025,38.12415 -34.59302,10.87909 -69.99118,17.38788 -106.04553,20.8255 -24.59171,2.34466 -49.25303,3.19873 -73.83692,1.59485 -58.66125,-3.82709 -114.78372,-17.66071 -166.3576,-46.66169 -48.81223,-27.44818 -86.76758,-65.39801 -109.41262,-117.40905 -9.77342,-22.44763 -15.73728,-45.79599 -17.39319,-70.31314 -0.72421,-10.72278 -0.87204,-21.314 1.60741,-31.75315 3.04701,-12.8287 10.63525,-18.68258 23.82233,-19.2428 31.29312,-1.32937 62.60954,-1.52154 93.9187,-2.13238 29.99179,-0.58515 59.98605,-0.60837 89.97458,-1.0763 14.82562,-0.23126 29.64157,-0.46444 44.46777,-0.31143 4.98047,0.0514 8.77774,-2.36419 10.50458,-7.04028 2.2449,-6.07907 4.14725,-12.29373 5.9805,-18.51389 4.46701,-15.15615 8.79858,-30.35214 13.2088,-45.52511 1.16119,-3.995 2.29318,-7.98657 4.68762,-11.51248 7.14469,-10.52091 20.21646,-10.1496 26.44916,1.00244 3.59436,6.43133 5.02115,13.71869 7.11926,20.72214 6.5878,21.9902 13.14673,43.98907 19.73487,65.97915 0.13217,0.44123 0.48434,0.81656 1.0711,1.77139 2.79459,-8.46615 3.84717,-16.80819 5.42661,-25.01916 8.69946,-45.22607 17.3472,-90.46213 26.02285,-135.69281 1.44071,-7.51123 2.86945,-15.02573 4.42353,-22.51384 0.88849,-4.2813 2.69626,-8.2473 5.05887,-11.90367 7.24789,-11.21663 20.68286,-11.95215 29.58325,-1.38162 m 393.26434,168.11691 c -38.05829,-14.04111 -74.04474,-8.4863 -108.1748,12.22375 -1.32898,-2.6383 -0.92847,-4.6643 -0.81824,-6.62457 1.02008,-18.14651 -3.01148,-35.06595 -12.63818,-50.49005 -7.79755,-12.49338 -17.90546,-22.71915 -30.99805,-29.76648 -2.17255,-1.16943 -4.10321,-2.04309 -5.87811,0.88275 -5.25562,8.66373 -9.25354,17.8443 -9.92225,27.99189 -2.10827,31.99438 10.47657,56.92715 36.85486,75.01205 1.17511,0.80566 2.84265,1.20508 2.97394,3.34329 -2.28284,3.14374 -6.05475,4.2226 -9.45282,5.81522 -14.81695,6.94442 -30.84753,8.6069 -46.76715,8.97491 -29.98145,0.69306 -59.99145,0.31394 -89.98743,0.096 -7.12695,-0.0518 -12.62048,-3.39108 -15.63214,-10.42404 -2.93518,-6.85446 -6.39697,-13.48343 -10.0957,-21.18643 -4.93536,12.16043 -9.51166,23.3688 -14.03564,34.59823 -7.46699,18.53421 -14.77717,37.14884 -23.75702,55.01264 -5.4563,10.85418 -16.0224,11.5343 -23.58606,1.94989 -2.07892,-2.63434 -3.81147,-5.48157 -4.56183,-8.80237 -1.20709,-5.34174 -2.49903,-10.66983 -3.50714,-16.05011 -6.2118,-33.15186 -12.34778,-66.31793 -18.52155,-99.47693 -4.56354,-24.51059 -9.12573,-49.02139 -13.73083,-73.52417 -1.67255,-8.89914 -3.46759,-17.77527 -5.4144,-27.72308 -0.57999,1.5205 -0.80466,1.9158 -0.88111,2.33795 -3.02349,16.69372 -5.99548,33.39682 -9.05371,50.08414 -5.63009,30.7207 -11.31356,61.43164 -16.96756,92.14798 -3.33978,18.14401 -6.5513,36.31262 -10.03924,54.42803 -2.20996,11.47788 -12.914,16.46244 -21.67908,10.37101 -3.02112,-2.09949 -4.5437,-5.23053 -5.89841,-8.48844 -8.24551,-19.82974 -14.93106,-40.2261 -21.90609,-60.51434 -4.02881,-11.71835 -7.77591,-23.53357 -12.04551,-36.50763 -4.64956,15.81015 -8.89804,30.32986 -13.19216,44.83606 -3.80738,12.86197 -8.95044,16.85724 -22.26892,16.92383 -72.14805,0.36078 -144.2963,0.67648 -216.44462,0.97464 -11.48259,0.0475 -16.23085,4.30029 -16.64791,15.68985 -1.20965,33.03308 7.80641,63.27722 26.13179,90.56732 10.09083,15.02734 23.03417,27.26575 40.65202,33.3523 24.25473,8.37951 48.93277,8.45281 73.83658,3.36456 17.48282,-3.57215 34.43914,-9.06671 51.57116,-13.92816 23.24256,-6.59552 46.80204,-10.01123 71.04679,-7.40656 22.31201,2.39697 43.71829,8.45587 64.95935,15.302 28.58969,9.21485 57.66467,16.45838 87.7008,18.4206 36.16339,2.36242 71.75086,-0.72602 106.39045,-12.64374 41.11059,-14.1441 76.4613,-36.54694 104.44409,-70.06757 15.26513,-18.28622 27.86566,-38.1878 36.20764,-60.62423 0.88702,-2.38569 1.57623,-4.55762 5.26703,-3.27677 25.04303,8.69101 49.33661,6.09766 72.34967,-6.4544 17.68939,-9.64835 31.68127,-23.07322 38.60596,-42.76307 1.53796,-4.37298 0.42968,-6.57504 -4.48847,-7.95776 m -340.341,222.68933 c -21.57276,0.52576 -42.78107,-2.42352 -63.89331,-6.50989 -23.87058,-4.62024 -47.00907,-12.06653 -70.53778,-18.00213 -16.46396,-4.15338 -33.01697,-7.71216 -50.05133,-8.56995 -24.94355,-1.25604 -49.01993,3.14136 -72.67942,10.67529 -16.34097,5.20356 -32.92984,9.73401 -50.04599,11.17401 -19.53332,1.64338 -38.98414,0.73102 -58.76889,-6.79382 10.5365,9.68024 20.71753,17.68183 31.71691,24.62219 50.0063,31.5528 105.34315,45.65522 163.70433,48.56653 42.67956,2.12897 85.16247,-0.85693 127.08935,-9.81933 13.03321,-2.78601 25.96845,-5.91101 38.52088,-10.443 11.3263,-3.40644 22.28302,-7.7523 32.84777,-12.99572 16.89383,-8.38462 17.46438,-10.66542 46.52582,-32.33851 -24.47546,6.53437 -48.61065,10.87043 -74.42834,10.43433 z"/>
    <clipPath id="mark-clip">
      <path transform="translate(-17.954987 40.177278) translate(512 512) scale(1.1) translate(-512 -512)" d="m 521.57654,239.54935 c 5.77087,9.36415 6.48395,19.85931 8.65936,29.86767 10.8476,49.90757 19.18359,100.30497 29.04541,150.40631 2.78394,14.1435 5.60492,28.2797 9.50885,42.5763 4.64941,-11.31858 9.24115,-22.66126 13.96442,-33.94892 4.75561,-11.36499 8.71808,-23.08163 14.46631,-34.00613 3.43029,-6.51913 8.8222,-10.409 16.58752,-9.73972 7.85284,0.67682 12.4176,5.53541 15.55072,12.34955 4.10272,8.92304 8.71362,17.6211 12.57538,26.64304 2.31598,5.41052 5.81909,7.03659 11.48352,7.00897 24.33075,-0.1185 48.66333,0.15781 72.99524,0.27835 5.30224,0.0263 10.6048,0.004 16.74499,0.004 -3.59954,-5.3649 -6.9624,-9.84043 -9.76489,-14.64301 -15.68115,-26.87323 -17.11963,-54.82104 -5.25336,-83.34915 3.78132,-9.09067 9.32666,-17.30008 17.41541,-23.41995 2.28375,-1.72785 4.51092,-2.30887 7.42035,-1.44989 29.53937,8.72119 52.18384,25.97574 66.66876,53.44656 4.20746,7.97965 6.98401,16.49042 9.28272,25.58926 7.66217,-1.2948 14.82995,-4.04641 22.38757,-4.95449 30.5611,-3.67194 60.10156,-0.87366 87.87201,13.54406 9.80218,5.08902 11.1084,7.66822 7.72369,18.31671 -12.35717,38.87687 -39.2464,63.18103 -77.13367,76.24558 -13.42455,4.62921 -27.30285,5.90259 -41.39117,4.52951 -2.68347,-0.26154 -3.44348,0.92789 -4.30737,2.95953 -7.53394,17.71949 -17.41254,34.2013 -28.5589,49.75708 -14.0777,19.64679 -29.99994,37.87458 -47.89111,54.21344 -23.57782,21.53211 -49.21643,40.22846 -77.18744,55.75873 -28.35138,15.74152 -57.95539,28.39862 -88.88025,38.12415 -34.59302,10.87909 -69.99118,17.38788 -106.04553,20.8255 -24.59171,2.34466 -49.25303,3.19873 -73.83692,1.59485 -58.66125,-3.82709 -114.78372,-17.66071 -166.3576,-46.66169 -48.81223,-27.44818 -86.76758,-65.39801 -109.41262,-117.40905 -9.77342,-22.44763 -15.73728,-45.79599 -17.39319,-70.31314 -0.72421,-10.72278 -0.87204,-21.314 1.60741,-31.75315 3.04701,-12.8287 10.63525,-18.68258 23.82233,-19.2428 31.29312,-1.32937 62.60954,-1.52154 93.9187,-2.13238 29.99179,-0.58515 59.98605,-0.60837 89.97458,-1.0763 14.82562,-0.23126 29.64157,-0.46444 44.46777,-0.31143 4.98047,0.0514 8.77774,-2.36419 10.50458,-7.04028 2.2449,-6.07907 4.14725,-12.29373 5.9805,-18.51389 4.46701,-15.15615 8.79858,-30.35214 13.2088,-45.52511 1.16119,-3.995 2.29318,-7.98657 4.68762,-11.51248 7.14469,-10.52091 20.21646,-10.1496 26.44916,1.00244 3.59436,6.43133 5.02115,13.71869 7.11926,20.72214 6.5878,21.9902 13.14673,43.98907 19.73487,65.97915 0.13217,0.44123 0.48434,0.81656 1.0711,1.77139 2.79459,-8.46615 3.84717,-16.80819 5.42661,-25.01916 8.69946,-45.22607 17.3472,-90.46213 26.02285,-135.69281 1.44071,-7.51123 2.86945,-15.02573 4.42353,-22.51384 0.88849,-4.2813 2.69626,-8.2473 5.05887,-11.90367 7.24789,-11.21663 20.68286,-11.95215 29.58325,-1.38162 m 393.26434,168.11691 c -38.05829,-14.04111 -74.04474,-8.4863 -108.1748,12.22375 -1.32898,-2.6383 -0.92847,-4.6643 -0.81824,-6.62457 1.02008,-18.14651 -3.01148,-35.06595 -12.63818,-50.49005 -7.79755,-12.49338 -17.90546,-22.71915 -30.99805,-29.76648 -2.17255,-1.16943 -4.10321,-2.04309 -5.87811,0.88275 -5.25562,8.66373 -9.25354,17.8443 -9.92225,27.99189 -2.10827,31.99438 10.47657,56.92715 36.85486,75.01205 1.17511,0.80566 2.84265,1.20508 2.97394,3.34329 -2.28284,3.14374 -6.05475,4.2226 -9.45282,5.81522 -14.81695,6.94442 -30.84753,8.6069 -46.76715,8.97491 -29.98145,0.69306 -59.99145,0.31394 -89.98743,0.096 -7.12695,-0.0518 -12.62048,-3.39108 -15.63214,-10.42404 -2.93518,-6.85446 -6.39697,-13.48343 -10.0957,-21.18643 -4.93536,12.16043 -9.51166,23.3688 -14.03564,34.59823 -7.46699,18.53421 -14.77717,37.14884 -23.75702,55.01264 -5.4563,10.85418 -16.0224,11.5343 -23.58606,1.94989 -2.07892,-2.63434 -3.81147,-5.48157 -4.56183,-8.80237 -1.20709,-5.34174 -2.49903,-10.66983 -3.50714,-16.05011 -6.2118,-33.15186 -12.34778,-66.31793 -18.52155,-99.47693 -4.56354,-24.51059 -9.12573,-49.02139 -13.73083,-73.52417 -1.67255,-8.89914 -3.46759,-17.77527 -5.4144,-27.72308 -0.57999,1.5205 -0.80466,1.9158 -0.88111,2.33795 -3.02349,16.69372 -5.99548,33.39682 -9.05371,50.08414 -5.63009,30.7207 -11.31356,61.43164 -16.96756,92.14798 -3.33978,18.14401 -6.5513,36.31262 -10.03924,54.42803 -2.20996,11.47788 -12.914,16.46244 -21.67908,10.37101 -3.02112,-2.09949 -4.5437,-5.23053 -5.89841,-8.48844 -8.24551,-19.82974 -14.93106,-40.2261 -21.90609,-60.51434 -4.02881,-11.71835 -7.77591,-23.53357 -12.04551,-36.50763 -4.64956,15.81015 -8.89804,30.32986 -13.19216,44.83606 -3.80738,12.86197 -8.95044,16.85724 -22.26892,16.92383 -72.14805,0.36078 -144.2963,0.67648 -216.44462,0.97464 -11.48259,0.0475 -16.23085,4.30029 -16.64791,15.68985 -1.20965,33.03308 7.80641,63.27722 26.13179,90.56732 10.09083,15.02734 23.03417,27.26575 40.65202,33.3523 24.25473,8.37951 48.93277,8.45281 73.83658,3.36456 17.48282,-3.57215 34.43914,-9.06671 51.57116,-13.92816 23.24256,-6.59552 46.80204,-10.01123 71.04679,-7.40656 22.31201,2.39697 43.71829,8.45587 64.95935,15.302 28.58969,9.21485 57.66467,16.45838 87.7008,18.4206 36.16339,2.36242 71.75086,-0.72602 106.39045,-12.64374 41.11059,-14.1441 76.4613,-36.54694 104.44409,-70.06757 15.26513,-18.28622 27.86566,-38.1878 36.20764,-60.62423 0.88702,-2.38569 1.57623,-4.55762 5.26703,-3.27677 25.04303,8.69101 49.33661,6.09766 72.34967,-6.4544 17.68939,-9.64835 31.68127,-23.07322 38.60596,-42.76307 1.53796,-4.37298 0.42968,-6.57504 -4.48847,-7.95776 m -340.341,222.68933 c -21.57276,0.52576 -42.78107,-2.42352 -63.89331,-6.50989 -23.87058,-4.62024 -47.00907,-12.06653 -70.53778,-18.00213 -16.46396,-4.15338 -33.01697,-7.71216 -50.05133,-8.56995 -24.94355,-1.25604 -49.01993,3.14136 -72.67942,10.67529 -16.34097,5.20356 -32.92984,9.73401 -50.04599,11.17401 -19.53332,1.64338 -38.98414,0.73102 -58.76889,-6.79382 10.5365,9.68024 20.71753,17.68183 31.71691,24.62219 50.0063,31.5528 105.34315,45.65522 163.70433,48.56653 42.67956,2.12897 85.16247,-0.85693 127.08935,-9.81933 13.03321,-2.78601 25.96845,-5.91101 38.52088,-10.443 11.3263,-3.40644 22.28302,-7.7523 32.84777,-12.99572 16.89383,-8.38462 17.46438,-10.66542 46.52582,-32.33851 -24.47546,6.53437 -48.61065,10.87043 -74.42834,10.43433 z"/>
    </clipPath>
  </defs>

  <rect width="1024" height="1024" fill="url(#bg)"/>
  <ellipse cx="245" cy="138" rx="470" ry="250" fill="#ffffff" opacity="0.28" filter="url(#soft-blur)"/>
  <ellipse cx="784" cy="162" rx="214" ry="132" fill="#ffffff" opacity="0.18" filter="url(#soft-blur)"/>
  <rect width="1024" height="430" fill="url(#top-gloss)"/>

  <g filter="url(#symbol-shadow)">
    <path transform="translate(-17.954987 40.177278) translate(512 512) scale(1.1) translate(-512 -512)" fill="url(#symbol-fill)" d="m 521.57654,239.54935 c 5.77087,9.36415 6.48395,19.85931 8.65936,29.86767 10.8476,49.90757 19.18359,100.30497 29.04541,150.40631 2.78394,14.1435 5.60492,28.2797 9.50885,42.5763 4.64941,-11.31858 9.24115,-22.66126 13.96442,-33.94892 4.75561,-11.36499 8.71808,-23.08163 14.46631,-34.00613 3.43029,-6.51913 8.8222,-10.409 16.58752,-9.73972 7.85284,0.67682 12.4176,5.53541 15.55072,12.34955 4.10272,8.92304 8.71362,17.6211 12.57538,26.64304 2.31598,5.41052 5.81909,7.03659 11.48352,7.00897 24.33075,-0.1185 48.66333,0.15781 72.99524,0.27835 5.30224,0.0263 10.6048,0.004 16.74499,0.004 -3.59954,-5.3649 -6.9624,-9.84043 -9.76489,-14.64301 -15.68115,-26.87323 -17.11963,-54.82104 -5.25336,-83.34915 3.78132,-9.09067 9.32666,-17.30008 17.41541,-23.41995 2.28375,-1.72785 4.51092,-2.30887 7.42035,-1.44989 29.53937,8.72119 52.18384,25.97574 66.66876,53.44656 4.20746,7.97965 6.98401,16.49042 9.28272,25.58926 7.66217,-1.2948 14.82995,-4.04641 22.38757,-4.95449 30.5611,-3.67194 60.10156,-0.87366 87.87201,13.54406 9.80218,5.08902 11.1084,7.66822 7.72369,18.31671 -12.35717,38.87687 -39.2464,63.18103 -77.13367,76.24558 -13.42455,4.62921 -27.30285,5.90259 -41.39117,4.52951 -2.68347,-0.26154 -3.44348,0.92789 -4.30737,2.95953 -7.53394,17.71949 -17.41254,34.2013 -28.5589,49.75708 -14.0777,19.64679 -29.99994,37.87458 -47.89111,54.21344 -23.57782,21.53211 -49.21643,40.22846 -77.18744,55.75873 -28.35138,15.74152 -57.95539,28.39862 -88.88025,38.12415 -34.59302,10.87909 -69.99118,17.38788 -106.04553,20.8255 -24.59171,2.34466 -49.25303,3.19873 -73.83692,1.59485 -58.66125,-3.82709 -114.78372,-17.66071 -166.3576,-46.66169 -48.81223,-27.44818 -86.76758,-65.39801 -109.41262,-117.40905 -9.77342,-22.44763 -15.73728,-45.79599 -17.39319,-70.31314 -0.72421,-10.72278 -0.87204,-21.314 1.60741,-31.75315 3.04701,-12.8287 10.63525,-18.68258 23.82233,-19.2428 31.29312,-1.32937 62.60954,-1.52154 93.9187,-2.13238 29.99179,-0.58515 59.98605,-0.60837 89.97458,-1.0763 14.82562,-0.23126 29.64157,-0.46444 44.46777,-0.31143 4.98047,0.0514 8.77774,-2.36419 10.50458,-7.04028 2.2449,-6.07907 4.14725,-12.29373 5.9805,-18.51389 4.46701,-15.15615 8.79858,-30.35214 13.2088,-45.52511 1.16119,-3.995 2.29318,-7.98657 4.68762,-11.51248 7.14469,-10.52091 20.21646,-10.1496 26.44916,1.00244 3.59436,6.43133 5.02115,13.71869 7.11926,20.72214 6.5878,21.9902 13.14673,43.98907 19.73487,65.97915 0.13217,0.44123 0.48434,0.81656 1.0711,1.77139 2.79459,-8.46615 3.84717,-16.80819 5.42661,-25.01916 8.69946,-45.22607 17.3472,-90.46213 26.02285,-135.69281 1.44071,-7.51123 2.86945,-15.02573 4.42353,-22.51384 0.88849,-4.2813 2.69626,-8.2473 5.05887,-11.90367 7.24789,-11.21663 20.68286,-11.95215 29.58325,-1.38162 m 393.26434,168.11691 c -38.05829,-14.04111 -74.04474,-8.4863 -108.1748,12.22375 -1.32898,-2.6383 -0.92847,-4.6643 -0.81824,-6.62457 1.02008,-18.14651 -3.01148,-35.06595 -12.63818,-50.49005 -7.79755,-12.49338 -17.90546,-22.71915 -30.99805,-29.76648 -2.17255,-1.16943 -4.10321,-2.04309 -5.87811,0.88275 -5.25562,8.66373 -9.25354,17.8443 -9.92225,27.99189 -2.10827,31.99438 10.47657,56.92715 36.85486,75.01205 1.17511,0.80566 2.84265,1.20508 2.97394,3.34329 -2.28284,3.14374 -6.05475,4.2226 -9.45282,5.81522 -14.81695,6.94442 -30.84753,8.6069 -46.76715,8.97491 -29.98145,0.69306 -59.99145,0.31394 -89.98743,0.096 -7.12695,-0.0518 -12.62048,-3.39108 -15.63214,-10.42404 -2.93518,-6.85446 -6.39697,-13.48343 -10.0957,-21.18643 -4.93536,12.16043 -9.51166,23.3688 -14.03564,34.59823 -7.46699,18.53421 -14.77717,37.14884 -23.75702,55.01264 -5.4563,10.85418 -16.0224,11.5343 -23.58606,1.94989 -2.07892,-2.63434 -3.81147,-5.48157 -4.56183,-8.80237 -1.20709,-5.34174 -2.49903,-10.66983 -3.50714,-16.05011 -6.2118,-33.15186 -12.34778,-66.31793 -18.52155,-99.47693 -4.56354,-24.51059 -9.12573,-49.02139 -13.73083,-73.52417 -1.67255,-8.89914 -3.46759,-17.77527 -5.4144,-27.72308 -0.57999,1.5205 -0.80466,1.9158 -0.88111,2.33795 -3.02349,16.69372 -5.99548,33.39682 -9.05371,50.08414 -5.63009,30.7207 -11.31356,61.43164 -16.96756,92.14798 -3.33978,18.14401 -6.5513,36.31262 -10.03924,54.42803 -2.20996,11.47788 -12.914,16.46244 -21.67908,10.37101 -3.02112,-2.09949 -4.5437,-5.23053 -5.89841,-8.48844 -8.24551,-19.82974 -14.93106,-40.2261 -21.90609,-60.51434 -4.02881,-11.71835 -7.77591,-23.53357 -12.04551,-36.50763 -4.64956,15.81015 -8.89804,30.32986 -13.19216,44.83606 -3.80738,12.86197 -8.95044,16.85724 -22.26892,16.92383 -72.14805,0.36078 -144.2963,0.67648 -216.44462,0.97464 -11.48259,0.0475 -16.23085,4.30029 -16.64791,15.68985 -1.20965,33.03308 7.80641,63.27722 26.13179,90.56732 10.09083,15.02734 23.03417,27.26575 40.65202,33.3523 24.25473,8.37951 48.93277,8.45281 73.83658,3.36456 17.48282,-3.57215 34.43914,-9.06671 51.57116,-13.92816 23.24256,-6.59552 46.80204,-10.01123 71.04679,-7.40656 22.31201,2.39697 43.71829,8.45587 64.95935,15.302 28.58969,9.21485 57.66467,16.45838 87.7008,18.4206 36.16339,2.36242 71.75086,-0.72602 106.39045,-12.64374 41.11059,-14.1441 76.4613,-36.54694 104.44409,-70.06757 15.26513,-18.28622 27.86566,-38.1878 36.20764,-60.62423 0.88702,-2.38569 1.57623,-4.55762 5.26703,-3.27677 25.04303,8.69101 49.33661,6.09766 72.34967,-6.4544 17.68939,-9.64835 31.68127,-23.07322 38.60596,-42.76307 1.53796,-4.37298 0.42968,-6.57504 -4.48847,-7.95776 m -340.341,222.68933 c -21.57276,0.52576 -42.78107,-2.42352 -63.89331,-6.50989 -23.87058,-4.62024 -47.00907,-12.06653 -70.53778,-18.00213 -16.46396,-4.15338 -33.01697,-7.71216 -50.05133,-8.56995 -24.94355,-1.25604 -49.01993,3.14136 -72.67942,10.67529 -16.34097,5.20356 -32.92984,9.73401 -50.04599,11.17401 -19.53332,1.64338 -38.98414,0.73102 -58.76889,-6.79382 10.5365,9.68024 20.71753,17.68183 31.71691,24.62219 50.0063,31.5528 105.34315,45.65522 163.70433,48.56653 42.67956,2.12897 85.16247,-0.85693 127.08935,-9.81933 13.03321,-2.78601 25.96845,-5.91101 38.52088,-10.443 11.3263,-3.40644 22.28302,-7.7523 32.84777,-12.99572 16.89383,-8.38462 17.46438,-10.66542 46.52582,-32.33851 -24.47546,6.53437 -48.61065,10.87043 -74.42834,10.43433 z"/>
  </g>

  <g clip-path="url(#mark-clip)">
    <ellipse cx="334" cy="226" rx="296" ry="176" fill="url(#specular)" transform="rotate(-14 334 226)"/>
    <path d="M126 230C260 164 476 154 664 186C760 203 842 236 915 290L915 430C842 385 738 353 625 342C456 326 271 361 115 452Z" fill="url(#symbol-sheen)" opacity="0.9"/>
    <ellipse cx="575" cy="566" rx="412" ry="266" fill="#ffffff" opacity="0.08" filter="url(#soft-blur)"/>
  </g>
</svg>
